<?xml version="1.0" encoding="UTF-8"?>
<!-- Created with Inkscape (http://www.inkscape.org/) -->
<svg width="212.18" height="191.72" version="1.1" viewBox="0 0 56.139 50.727" xmlns="http://www.w3.org/2000/svg">
 <g transform="translate(87.014 -26.724)">
  <g transform="matrix(.83867 0 0 .83867 7.0192 -6.0317)">
   <path d="m-88.521 39.057 3.3399 5.0095 3.3399-5.0095h-3.3399zm7.903 0 0.01175 0.01727-3.3177 4.9756h6.6347l0.01112 0.01665 0.01112-0.01665h6.6125l-3.306-4.9595 0.02219-0.0333h-3.3399zm7.8808 0 3.3399 5.0095 3.3399-5.0095h-3.3399zm-17.018 0.01665-3.3177 4.9762h6.6347zm24.933 0-3.3177 4.9762h6.6347zm-28.25 6.1797 15.784 16.696 15.784-16.696h-3.5766l-11.82 15.145 9.1318-15.145h-18.081l8.3302 15.145-11.244-15.145z" fill="#d4aa00"/>
   <g fill="#2a2a2a" stroke-linecap="round" stroke-linejoin="round" stroke-width="7.3999" style="paint-order:markers fill stroke" aria-label="Ruby">
    <path d="m-106.5 87.8q0.12492 0 0.24984-0.30337 0.0357-0.10707 0.0892-0.1963 0.21415-1.1599 0.3926-2.3377 0.26768-1.9273 0.69597-3.8189 1.3384-6.9062 3.23-13.063 1.3562-4.6398 2.7482-7.3701 0.10707-0.24984 0.10707-0.46398 0-0.23199-0.21414-0.49967-0.1963-0.28553-0.64243-0.28553-0.46398 0-0.73166 0.49967l-2.1058 8.4052q-0.96365 3.6226-3.2657 12.581-1.0886 4.0152-1.1243 4.2294-0.17845 0.83873-0.5889 1.6061 0.0357-0.10707 0.0535-0.17845 0.0357-0.08923 0.0535-0.12492 0.0178-0.05354 0.0357-0.05354l0.0535 0.01784q0.14276 0.10707 0.51752 0.10707 0.51751 0 0.51751-0.12492-0.10707-0.10707-0.30337-0.83873-0.73166-3.2479-0.73166-7.4237 0-3.4442 0.49967-6.121l0.10707-0.76735q0.82089-4.5327 3.3192-8.4052 1.3562-1.9987 3.1943-3.5691 3.1408-2.7839 7.2809-3.6226 0.48182-0.07138 1.3384-0.14276l0.37475 0.03569q0.37475 0 0.73166 0.08923 1.7845 0.42829 2.1771 2.3913 0.03569 0.23199 0.10707 1.2492l-0.03569 0.44613q-0.14276 3.6405-3.3192 8.1553-2.1593 3.0159-5.1216 4.7112-2.1593 1.1956-4.961 1.1956-2.8196 0-5.1752-1.1243l-0.3926-0.16061q-1.3206-0.62459-2.4448-1.5704-0.53537-0.3926-0.7852-0.96365 0.0535 0.07138 0.10707 0.16061 0.0535 0.08923 0.0892 0.12492 0.0178 0.01785 0.0178 0.05354t-0.10707 0.08923q-0.37475 0.21414-0.78519 0.7852 0 0.01784 0.0357 0.03569 0.0178 0 0.0892 0.01784 0.0535 0 0.64244 0.37475 1.4276 0.89227 1.9808 1.3027 4.8004 3.2835 10.172 5.3001l0.73166 0.28553q4.497 1.731 9.2439 2.5519 0.96365 0.16061 1.3384 0.16061 0.60674 0 0.60674-0.57105 0-0.12492-0.07138-0.32122t-0.48182-0.26768q-0.41044 0-1.2313-0.03569-4.1223-0.33906-9.1725-2.1236l-0.69597-0.28553q-5.2465-1.963-9.7614-5.6034l-1.1242-0.9458q-0.17846-0.12492-0.71382-0.60674-0.24983-0.24984-0.60674-0.51752l-0.17845-0.16061q-0.21415-0.24984-0.33907-0.24984-0.0535 0-0.0892 0.01785-1.2492 0.28553-1.2492 0.64243 0 0.21414 0.14277 0.49967l0.0714 0.21414q0.85657 0.91011 1.9451 1.5347 1.3919 0.83873 2.6233 1.2849 2.7839 1.1599 5.7462 1.1599 1.6418 0 3.1229-0.46398 2.6768-0.80304 4.9253-2.998 1.5704-1.5169 2.5876-3.0516 1.4098-1.963 2.4448-4.2115 1.035-2.2664 1.267-4.4256 0.01785-0.26768 0.05354-0.51752l-0.01785-0.57105q0-0.55321-0.07138-1.035-0.07138-0.49967-0.35691-1.1064-1.0886-2.0701-3.4798-2.0701h-0.7495q-0.73166 0.08923-1.4633 0.24984-4.4078 1.1243-7.5664 4.0509-0.24983 0.23199-0.51751 0.44613-0.33906 0.37475-0.62459 0.66028-0.5889 0.62459-1.035 1.1778-0.44613 0.53536-1.0707 1.4812-2.7839 4.5149-3.462 9.4402-0.73166 4.0152-0.73166 8.6907 0 1.3919 0.0714 2.7839l0.0357 0.67812q0.0357 1.3206 0.21415 2.5519l0.0178 0.23199q0 0.41044 0.14276 0.49967 0.55321 0.41044 1.3562 0.41044z"/>
    <path d="m-85.908 82.589q1.2492 0 2.6233-2.1414l1.731-2.5162q0.67812-0.9458 1.035-1.4812 0.3926 0.57105 0.51752 0.82089 1.267 2.0165 2.9088 2.6233 0.76735 0.24984 1.6061 0.24984 0.33906 0 0.67812-0.03569 2.3556-0.41044 3.926-1.9808l0.30337-0.26768q0.28553-0.30337 0.28553-0.48182 0-0.21414-0.24984-0.21414-0.28553 0-0.82089 0.53536-1.2492 1.3741-3.5334 1.8024-0.28553 0.03569-0.55321 0.03569-0.24984 0-0.62459-0.05354t-1.2313-0.46398q-1.5347-0.92796-2.6946-3.2657-0.10707-0.21414-0.26768-0.33906-0.14276-0.14276-0.46398-0.14276-0.14276 0-0.28553 0.08923-0.24984 0.12492-1.3206 1.8024-0.82089 1.2849-1.7132 2.534l-0.16061 0.1963q-0.99934 1.3206-1.4276 1.3206-0.05354 0-0.23199-0.05354-0.16061-0.05354-0.30337-0.9458-0.07138-0.62459-0.07138-1.2492 0-0.53536 0.05354-1.0886v-0.08923q0.26768-2.2842 0.85658-3.6405 0.08923-0.23199 0.08923-0.42829 0-0.26768-0.16061-0.46398-0.26768-0.32122-0.69597-0.32122-0.01784 0-0.24984 0.01785-0.23199 0-0.49967 0.51752-0.71381 3.4085-0.71381 5.889l0.01785 0.92796q0.05354 1.7667 1.2849 2.2664 0.17845 0.03569 0.35691 0.03569z"/>
    <path d="m-69.008 90.173q1.035 0 2.427-1.6953 2.3377-2.8196 3.8724-7.388 0.48182-1.4633 0.48182-2.6768 0-0.05354-0.01784-0.33906 0-0.30337-0.05354-0.67812-0.03569-0.3926-0.42829-0.89227-0.5889-0.76735-1.6239-0.76735-0.60674 0-1.267 0.35691-1.7488 0.96365-3.6761 2.9623-0.17845 0.1963-0.55321 0.32122-0.35691 0.10707-0.57105 0.26768-0.08923 0.21414-0.12492 0.21414-0.03569 0-0.03569-0.12492 0-0.53536 0.49967-2.9802 1.9095-9.3331 4.9789-14.615 0.46398-0.80304 0.9458-1.3919 0.49967-0.60674 1.2313-1.0886 0.16061-0.10707 0.26768-0.10707 0.14276 0 0.14276 0.55321 0 1.1421-0.30337 2.2842-1.5347 5.9425-4.4613 11.617-1.499 2.9266-2.7482 4.3364-0.44613 0.51752-0.44613 0.87442 0 0.82089 0.85658 0.82089 0.35691 0 0.5889-0.41044 1.4098-2.5162 2.4984-5.1573 5.3893-13.045 5.3893-14.883 0-0.48182-0.26768-0.91011-0.3926-0.64243-1.1778-0.64243-0.80304 0-1.5525 0.7495-1.1599 1.1778-1.8916 2.6768-1.7132 3.5155-3.8546 11.207-1.0886 3.8903-1.499 8.1196l-0.01784 0.41044q0 0.33906 0.14276 0.57105 0.12492 0.23199 0.64243 0.23199 0.21414 0 0.49967-0.03569 0.30337-0.05354 1.5704-1.8024 1.0529-1.4276 2.6946-2.5519 0.87442-0.60674 1.5347-0.60674 0.28553 0 0.44613 0.14276 0.42829 0.35691 0.42829 1.9451 0 1.4812-0.9458 3.8546-0.87442 2.195-2.2485 3.9795-0.69597 0.91011-1.6418 1.5704-0.51752 0.37475-0.76735 0.37475-0.53536 0-0.53536-0.5889l-0.01785-0.30337q0-1.7667 1.5704-4.6755 2.4805-3.7118 6.3173-4.9967 2.0879-0.69597 3.1765-0.80304 0.1963-0.01785 0.1963-0.24984 0-0.07138-0.01785-0.14276-0.01785-0.07138-0.1963-0.07138-1.1599 0-3.9617 0.9815-3.1051 1.0707-5.7105 4.5149-1.0529 1.3741-1.5169 2.5162l-0.21414 0.53536q-0.62459 1.499-0.62459 2.7125l0.01784 0.37475q0.05354 1.3562 1.5525 1.499z"/>
    <path d="m-58.747 99.542q1.035 0 2.3377-1.7132 1.0707-1.3919 1.6596-2.6233 1.6953-3.8368 2.659-9.2617 0.3926-2.2842 0.7495-4.6219 0.49967-3.1943 1.0707-6.3173l0.14276-0.69597q0.30337-1.1956 0.30337-1.7845 0-0.3926-0.24984-0.60674-0.23199-0.21414-0.55321-0.21414-0.08923 0-0.35691 0.05354-0.24984 0.03569-0.57105 0.53536-1.6418 3.1051-3.926 5.6927-1.3741 1.5704-1.8559 1.5704-0.12492 0-0.23199-0.07138-0.16061-0.42829-0.16061-0.89227 0-0.53536 0.14276-1.3027l0.08923-0.62459q0-0.03569 0.01785-0.05354 0.46398-2.3377 1.1778-3.5334 0.14276-0.28553 0.14276-0.51752 0-0.21414-0.21414-0.49967-0.1963-0.30337-0.67812-0.30337-0.42829 0-0.73166 0.48182-0.62459 2.0522-0.96365 4.1758-0.03569 0.37475-0.12492 0.7852-0.21414 1.1064-0.21414 1.8738 0 0.69597 0.28552 1.267 0.42829 0.69597 1.3027 0.7852 0.44613-0.03569 0.85658-0.30337 1.2135-0.7852 2.6233-2.7482 0.17845-0.24984 0.89227-1.1599 2.7303-3.4442 2.7303-3.694 0-0.01785-0.01785-0.01785-0.03569 0-0.23199 0.17845-0.23199-0.07138-0.42829-0.26768-0.17845-0.21414-0.3926-0.30337-0.03569 0-0.03569 0.01784 0 0.05354 0.01785 0.16061 0.03569 0.08923 0.03569 0.14276 0 1.1778-0.05354 1.7132-0.85658 13.777-4.0687 20.005-1.267 2.4448-2.5876 3.3728-0.26768 0.1963-0.51752 0.1963-0.46398 0-0.82089-0.69597-0.17845-0.71382-0.17845-1.4812 0-0.9458 0.37475-2.427 0.5889-2.2128 1.6953-4.4256 1.7667-3.7297 5.425-7.6021 3.1586-3.3728 6.8883-5.4428 0.10707-0.05354 0.10707-0.16061 0-0.21414-0.1963-0.21414-0.08923 0-0.1963 0.05354-3.23 1.6596-6.3529 5.0324-3.1229 3.3549-5.6213 7.1381l-0.41044 0.74951q-1.5525 2.6946-2.3199 5.7284-0.30337 1.0172-0.30337 2.1058 0 0.41044 0.05354 0.83873 0.14276 1.1064 1.1243 1.8024 0.32122 0.12492 0.66028 0.12492z"/>
   </g>
  </g>
  <g fill="#77767b" stroke-linecap="round" stroke-linejoin="round" style="paint-order:markers fill stroke" aria-label="RESORTS">
   <path d="m-82.585 74.444h1.1961q0.13987 0 0.24839-0.06752 0.10852-0.06752 0.1664-0.19051 0.06029-0.1254 0.06029-0.28698 0-0.16158-0.06029-0.28456-0.05788-0.1254-0.1664-0.19293-0.10611-0.06752-0.24839-0.06752h-1.1961v-0.46784h1.1768q0.30386 0 0.53296 0.1254 0.23151 0.1254 0.35691 0.35691 0.12781 0.2291 0.12781 0.53054 0 0.30145-0.12781 0.53296-0.12781 0.2291-0.35932 0.3545-0.2291 0.1254-0.53055 0.1254h-1.1768zm-0.21463-1.5579h0.49196v3.5088h-0.49196zm1.1696 1.9172 0.48955-0.11093 0.8971 1.7026h-0.5836z"/>
   <path d="m-76.935 72.888h0.49196v3.5064h-0.49196zm0.23875 3.0386h2.0137v0.46784h-2.0137zm0-1.5072h1.7484v0.46784h-1.7484zm0-1.5313h2.0137v0.46784h-2.0137z"/>
   <path d="m-70.283 76.431q-0.25322 0-0.4799-0.04823-0.22669-0.04823-0.42444-0.14469-0.19534-0.09646-0.36656-0.24116l0.30627-0.3762q0.20016 0.17363 0.44132 0.26045 0.24116 0.08682 0.52331 0.08682 0.38103 0 0.59084-0.13987 0.20981-0.14228 0.20981-0.40032v-0.0024q0-0.18328-0.09646-0.28939-0.09405-0.10852-0.24598-0.15916-0.14952-0.05305-0.38826-0.09646-0.0072-0.0024-0.01688-0.0024-0.0072 0-0.01447-0.0024l-0.03617-0.0072q-0.35209-0.06029-0.57395-0.13505-0.21945-0.07717-0.37621-0.27733-0.15675-0.20257-0.15675-0.57396v-0.0024q0-0.32556 0.1447-0.55466 0.1471-0.23151 0.42685-0.35209 0.27974-0.12058 0.67283-0.12058 0.1881 0 0.36897 0.041 0.18328 0.041 0.35932 0.12299 0.17846 0.07958 0.34968 0.20257l-0.27974 0.39068q-0.20016-0.14711-0.40032-0.21945-0.19775-0.07476-0.39791-0.07476-0.35932 0-0.55948 0.14469-0.19775 0.14228-0.19775 0.40514v0.0024q0 0.18087 0.10129 0.28457 0.1037 0.1037 0.25563 0.15434 0.15434 0.04823 0.42685 0.10129 0.0096 0.0024 0.01688 0.0048 0.0096 0 0.01929 0.0024 0.01206 0.0024 0.02653 0.0048t0.02653 0.0048q0.31833 0.06511 0.53055 0.15434 0.21463 0.08923 0.35691 0.28939 0.14469 0.19775 0.14469 0.5426v0.0048q0 0.32074-0.15193 0.54984-0.15193 0.22669-0.44132 0.34727-0.28698 0.11817-0.69453 0.11817z"/>
   <path d="m-64.587 76.431q-0.36656 0-0.6463-0.15916-0.27974-0.16158-0.43408-0.45338-0.15193-0.29421-0.15193-0.68006v-0.99357q0-0.38585 0.15193-0.67765 0.15434-0.29421 0.43408-0.45338 0.27974-0.16158 0.6463-0.16158t0.6463 0.16158q0.27974 0.15916 0.43167 0.45338 0.15434 0.2918 0.15434 0.67765v0.99357q0 0.38585-0.15434 0.68006-0.15193 0.2918-0.43167 0.45338-0.27974 0.15916-0.6463 0.15916zm0-0.48473q0.21704 0 0.38103-0.09646 0.1664-0.09887 0.25563-0.27733 0.09164-0.18087 0.09164-0.4172v-1.0273q0-0.23633-0.09164-0.41479-0.08923-0.18087-0.25563-0.27733-0.16399-0.09888-0.38103-0.09888-0.21704 0-0.38344 0.09888-0.16399 0.09646-0.25563 0.27733-0.08923 0.17846-0.08923 0.41479v1.0273q0 0.23633 0.08923 0.4172 0.09164 0.17846 0.25563 0.27733 0.1664 0.09646 0.38344 0.09646z"/>
   <path d="m-59.747 74.444h1.1961q0.13987 0 0.24839-0.06752 0.10852-0.06752 0.1664-0.19051 0.06029-0.1254 0.06029-0.28698 0-0.16158-0.06029-0.28456-0.05788-0.1254-0.1664-0.19293-0.10611-0.06752-0.24839-0.06752h-1.1961v-0.46784h1.1768q0.30386 0 0.53296 0.1254 0.23151 0.1254 0.35691 0.35691 0.12781 0.2291 0.12781 0.53054 0 0.30145-0.12781 0.53296-0.12781 0.2291-0.35932 0.3545-0.2291 0.1254-0.53055 0.1254h-1.1768zm-0.21463-1.5579h0.49196v3.5088h-0.49196zm1.1696 1.9172 0.48955-0.11093 0.8971 1.7026h-0.5836z"/>
   <path d="m-53.587 73.175h0.49196v3.2194h-0.49196zm-0.99116-0.28698h2.4743v0.46784h-2.4743z"/>
   <path d="m-48.018 76.431q-0.25322 0-0.4799-0.04823t-0.42444-0.14469q-0.19534-0.09646-0.36656-0.24116l0.30627-0.3762q0.20016 0.17363 0.44132 0.26045 0.24116 0.08682 0.52331 0.08682 0.38103 0 0.59084-0.13987 0.20981-0.14228 0.20981-0.40032v-0.0024q0-0.18328-0.09646-0.28939-0.09405-0.10852-0.24598-0.15916-0.14952-0.05305-0.38826-0.09646-0.0072-0.0024-0.01688-0.0024-0.0072 0-0.01447-0.0024l-0.03617-0.0072q-0.35209-0.06029-0.57395-0.13505-0.21945-0.07717-0.3762-0.27733-0.15675-0.20257-0.15675-0.57396v-0.0024q0-0.32556 0.14469-0.55466 0.14711-0.23151 0.42685-0.35209 0.27974-0.12058 0.67283-0.12058 0.1881 0 0.36897 0.041 0.18328 0.041 0.35932 0.12299 0.17846 0.07958 0.34968 0.20257l-0.27974 0.39068q-0.20016-0.14711-0.40032-0.21945-0.19775-0.07476-0.39791-0.07476-0.35932 0-0.55948 0.14469-0.19775 0.14228-0.19775 0.40514v0.0024q0 0.18087 0.10129 0.28457 0.1037 0.1037 0.25563 0.15434 0.15434 0.04823 0.42685 0.10129 0.0096 0.0024 0.01688 0.0048 0.0096 0 0.01929 0.0024 0.01206 0.0024 0.02653 0.0048t0.02653 0.0048q0.31833 0.06511 0.53054 0.15434 0.21463 0.08923 0.35691 0.28939 0.14469 0.19775 0.14469 0.5426v0.0048q0 0.32074-0.15193 0.54984-0.15193 0.22669-0.44132 0.34727-0.28698 0.11817-0.69453 0.11817z"/>
  </g>
 </g>
</svg>
